<svg xmlns="http://www.w3.org/2000/svg" xmlns:xlink="http://www.w3.org/1999/xlink" viewBox="0 0 2653.08 1117.91"><defs><style>.cls-1{fill:none;}.cls-2{fill:url(#Gradiente_sem_nome_26);}.cls-3{fill:url(#Gradiente_sem_nome_21);}.cls-4{clip-path:url(#clip-path);}.cls-5{fill:#add045;}.cls-6{fill:#acd045;}.cls-7{fill:#abcf46;}.cls-8{fill:#aacf46;}.cls-9{fill:#a9cf47;}.cls-10{fill:#a8ce47;}.cls-11{fill:#a7ce47;}.cls-12{fill:#a6ce48;}.cls-13{fill:#a5cd48;}.cls-14{fill:#a4cd48;}.cls-15{fill:#a3cd49;}.cls-16{fill:#a2cc49;}.cls-17{fill:#a1cc4a;}.cls-18{fill:#a0cc4a;}.cls-19{fill:#9fcb4a;}.cls-20{fill:#9ecb4b;}.cls-21{fill:#9dcb4b;}.cls-22{fill:#9cca4b;}.cls-23{fill:#9bca4c;}.cls-24{fill:#9ac94c;}.cls-25{fill:#99c94d;}.cls-26{fill:#98c94d;}.cls-27{fill:#97c84d;}.cls-28{fill:#96c84e;}.cls-29{fill:#95c84e;}.cls-30{fill:#94c74e;}.cls-31{fill:#93c74f;}.cls-32{fill:#92c74f;}.cls-33{fill:#91c650;}.cls-34{fill:#90c650;}.cls-35{fill:#8fc650;}.cls-36{fill:#8ec551;}.cls-37{fill:#8dc551;}.cls-38{fill:#8cc551;}.cls-39{fill:#8bc452;}.cls-40{fill:#8ac452;}.cls-41{fill:#89c453;}.cls-42{fill:#88c353;}.cls-43{fill:#87c353;}.cls-44{fill:#86c354;}.cls-45{fill:#85c254;}.cls-46{fill:#84c254;}.cls-47{fill:#83c255;}.cls-48{fill:#82c155;}.cls-49{fill:#81c156;}.cls-50{fill:#80c156;}.cls-51{fill:#7fc056;}.cls-52{fill:#7ec057;}.cls-53{fill:#7dc057;}.cls-54{fill:#7cbf57;}.cls-55{fill:#7bbf58;}.cls-56{fill:#7abf58;}.cls-57{fill:#79be59;}.cls-58{fill:#78be59;}.cls-59{fill:#77be59;}.cls-60{fill:#76bd5a;}.cls-61{fill:#75bd5a;}.cls-62{fill:#74bc5a;}.cls-63{fill:#73bc5b;}.cls-64{fill:#72bc5b;}.cls-65{fill:#71bb5c;}.cls-66{fill:#70bb5c;}.cls-67{fill:#6fbb5c;}.cls-68{fill:#6eba5d;}.cls-69{fill:#6dba5d;}.cls-70{fill:#6cba5d;}.cls-71{fill:#6bb95e;}.cls-72{fill:#6ab95e;}.cls-73{fill:#69b95f;}.cls-74{fill:#68b85f;}.cls-75{fill:#67b85f;}.cls-76{fill:#66b860;}.cls-77{fill:#65b760;}.cls-78{fill:#64b760;}.cls-79{fill:#63b761;}.cls-80{fill:#62b661;}.cls-81{fill:#60b662;}.cls-82{fill:#5fb662;}.cls-83{fill:#5eb562;}.cls-84{fill:#5db563;}.cls-85{fill:#5cb563;}.cls-86{fill:#5bb463;}.cls-87{fill:#5ab464;}.cls-88{fill:#59b464;}.cls-89{fill:#58b365;}.cls-90{fill:#57b365;}.cls-91{fill:#56b365;}.cls-92{fill:#55b266;}.cls-93{fill:#54b266;}.cls-94{fill:#53b266;}.cls-95{fill:#52b167;}.cls-96{fill:#51b167;}.cls-97{fill:#50b168;}.cls-98{fill:#4fb068;}.cls-99{fill:#4eb068;}.cls-100{fill:#4daf69;}.cls-101{fill:#4caf69;}.cls-102{fill:#4baf69;}.cls-103{fill:#4aae6a;}.cls-104{fill:#49ae6a;}.cls-105{fill:#48ae6b;}.cls-106{fill:#47ad6b;}.cls-107{fill:#46ad6b;}.cls-108{fill:#45ad6c;}.cls-109{fill:#44ac6c;}.cls-110{fill:#43ac6c;}.cls-111{fill:#42ac6d;}.cls-112{fill:#41ab6d;}.cls-113{fill:#40ab6e;}.cls-114{fill:#3fab6e;}.cls-115{fill:#3eaa6e;}.cls-116{fill:#3daa6f;}.cls-117{fill:#3caa6f;}.cls-118{fill:#3ba96f;}.cls-119{fill:#3aa970;}.cls-120{fill:#39a970;}.cls-121{fill:#38a871;}.cls-122{fill:#37a871;}.cls-123{fill:#36a871;}.cls-124{fill:#35a772;}.cls-125{fill:#34a772;}.cls-126{fill:#33a772;}.cls-127{fill:#32a673;}.cls-128{fill:#31a673;}.cls-129{fill:#30a674;}.cls-130{fill:#2fa574;}.cls-131{fill:#2ea574;}.cls-132{fill:#2da575;}.cls-133{fill:#2ca475;}.cls-134{fill:#2ba475;}.cls-135{fill:#2aa476;}.cls-136{fill:#29a376;}.cls-137{fill:#28a377;}.cls-138{fill:#27a277;}.cls-139{fill:#26a277;}.cls-140{fill:#25a278;}.cls-141{fill:#24a178;}.cls-142{fill:#23a178;}.cls-143{fill:#22a179;}.cls-144{fill:#21a079;}.cls-145{fill:#20a07a;}.cls-146{fill:#1fa07a;}.cls-147{fill:#1e9f7a;}.cls-148{fill:#1d9f7b;}.cls-149{fill:#1c9f7b;}.cls-150{fill:#1b9e7b;}.cls-151{fill:#1a9e7c;}.cls-152{fill:#199e7c;}.cls-153{fill:#189d7d;}.cls-154{fill:#179d7d;}.cls-155{fill:#169d7d;}.cls-156{fill:#159c7e;}.cls-157{fill:#149c7e;}.cls-158{fill:#189d7c;}.cls-159{fill:#1a9e7b;}.cls-160{fill:#1c9f7a;}.cls-161{fill:#1d9f7a;}.cls-162{fill:#1e9f79;}.cls-163{fill:#1fa079;}.cls-164{fill:#20a078;}.cls-165{fill:#21a078;}.cls-166{fill:#22a177;}.cls-167{fill:#23a177;}.cls-168{fill:#24a177;}.cls-169{fill:#25a276;}.cls-170{fill:#26a276;}.cls-171{fill:#27a275;}.cls-172{fill:#28a275;}.cls-173{fill:#29a374;}.cls-174{fill:#2aa374;}.cls-175{fill:#2ba373;}.cls-176{fill:#2ca473;}.cls-177{fill:#2da472;}.cls-178{fill:#2ea472;}.cls-179{fill:#2fa571;}.cls-180{fill:#30a571;}.cls-181{fill:#31a570;}.cls-182{fill:#32a670;}.cls-183{fill:#33a66f;}.cls-184{fill:#34a66f;}.cls-185{fill:#35a76f;}.cls-186{fill:#36a76e;}.cls-187{fill:#37a76e;}.cls-188{fill:#38a86d;}.cls-189{fill:#39a86d;}.cls-190{fill:#3aa86c;}.cls-191{fill:#3ba96c;}.cls-192{fill:#3ca96b;}.cls-193{fill:#3da96b;}.cls-194{fill:#3eaa6a;}.cls-195{fill:#3faa6a;}.cls-196{fill:#40aa69;}.cls-197{fill:#41ab69;}.cls-198{fill:#42ab68;}.cls-199{fill:#43ab68;}.cls-200{fill:#44ac68;}.cls-201{fill:#45ac67;}.cls-202{fill:#46ac67;}.cls-203{fill:#47ad66;}.cls-204{fill:#48ad66;}.cls-205{fill:#49ad65;}.cls-206{fill:#4aae65;}.cls-207{fill:#4bae64;}.cls-208{fill:#4dae64;}.cls-209{fill:#4eae63;}.cls-210{fill:#4faf63;}.cls-211{fill:#50af62;}.cls-212{fill:#51af62;}.cls-213{fill:#52b061;}.cls-214{fill:#53b061;}.cls-215{fill:#54b060;}.cls-216{fill:#55b160;}.cls-217{fill:#56b160;}.cls-218{fill:#57b15f;}.cls-219{fill:#58b25f;}.cls-220{fill:#59b25e;}.cls-221{fill:#5ab25e;}.cls-222{fill:#5bb35d;}.cls-223{fill:#5cb35d;}.cls-224{fill:#5db35c;}.cls-225{fill:#5eb45c;}.cls-226{fill:#5fb45b;}.cls-227{fill:#60b45b;}.cls-228{fill:#61b55a;}.cls-229{fill:#62b55a;}.cls-230{fill:#63b559;}.cls-231{fill:#64b659;}.cls-232{fill:#65b659;}.cls-233{fill:#66b658;}.cls-234{fill:#67b758;}.cls-235{fill:#68b757;}.cls-236{fill:#69b757;}.cls-237{fill:#6ab856;}.cls-238{fill:#6bb856;}.cls-239{fill:#6cb855;}.cls-240{fill:#6db955;}.cls-241{fill:#6eb954;}.cls-242{fill:#6fb954;}.cls-243{fill:#70ba53;}.cls-244{fill:#71ba53;}.cls-245{fill:#72ba52;}.cls-246{fill:#73ba52;}.cls-247{fill:#74bb51;}.cls-248{fill:#75bb51;}.cls-249{fill:#76bb51;}.cls-250{fill:#77bc50;}.cls-251{fill:#78bc50;}.cls-252{fill:#79bc4f;}.cls-253{fill:#7abd4f;}.cls-254{fill:#7bbd4e;}.cls-255{fill:#7cbd4e;}.cls-256{fill:#7dbe4d;}.cls-257{fill:#7ebe4d;}.cls-258{fill:#7fbe4c;}.cls-259{fill:#80bf4c;}.cls-260{fill:#81bf4b;}.cls-261{fill:#82bf4b;}.cls-262{fill:#83c04a;}.cls-263{fill:#84c04a;}.cls-264{fill:#82bf4a;}.cls-265{fill:#81bf4a;}.cls-266{fill:#80bf4a;}.cls-267{fill:#7fbe4a;}.cls-268{fill:#7ebe4b;}.cls-269{fill:#7dbe4b;}.cls-270{fill:#7cbd4b;}.cls-271{fill:#7bbd4b;}.cls-272{fill:#7abd4b;}.cls-273{fill:#78bc4b;}.cls-274{fill:#77bc4b;}.cls-275{fill:#76bc4b;}.cls-276{fill:#75bb4b;}.cls-277{fill:#74bb4b;}.cls-278{fill:#73bb4c;}.cls-279{fill:#72ba4c;}.cls-280{fill:#71ba4c;}.cls-281{fill:#70ba4c;}.cls-282{fill:#6fb94c;}.cls-283{fill:#6eb94c;}.cls-284{fill:url(#Gradiente_sem_nome_36);}.cls-285{fill:url(#Gradiente_sem_nome_15);}.cls-286{fill:url(#Gradiente_sem_nome_15-2);}.cls-287{fill:url(#Gradiente_sem_nome_15-3);}.cls-288{fill:#4970d9;}</style><linearGradient id="Gradiente_sem_nome_26" y1="453.95" x2="666.22" y2="453.95" gradientUnits="userSpaceOnUse"><stop offset="0" stop-color="#f23c40"/><stop offset="0.51" stop-color="#fec923"/><stop offset="1" stop-color="#fee336"/></linearGradient><linearGradient id="Gradiente_sem_nome_21" x1="735.96" y1="54.11" x2="735.96" y2="1321.32" gradientUnits="userSpaceOnUse"><stop offset="0" stop-color="#72ba4c"/><stop offset="0.51" stop-color="#1fa079"/><stop offset="1" stop-color="#96c84e"/></linearGradient><clipPath id="clip-path"><path class="cls-1" d="M529,1006.13q2.29-.63,4.56-1.38Q531.29,1005.52,529,1006.13Z"/></clipPath><linearGradient id="Gradiente_sem_nome_36" x1="245.19" y1="339.81" x2="802.47" y2="892.77" gradientUnits="userSpaceOnUse"><stop offset="0" stop-color="#0ba6cb"/><stop offset="0.51" stop-color="#2491e9"/><stop offset="1" stop-color="#506ad6"/></linearGradient><linearGradient id="Gradiente_sem_nome_15" x1="1192.08" y1="58.95" x2="2232.21" y2="1150.15" gradientUnits="userSpaceOnUse"><stop offset="0" stop-color="#07a9c5"/><stop offset="0.51" stop-color="#2391e9"/><stop offset="1" stop-color="#5368d5"/></linearGradient><linearGradient id="Gradiente_sem_nome_15-2" x1="1424.73" y1="-162.81" x2="2464.86" y2="928.39" xlink:href="#Gradiente_sem_nome_15"/><linearGradient id="Gradiente_sem_nome_15-3" x1="1649.23" y1="-376.8" x2="2689.36" y2="714.41" xlink:href="#Gradiente_sem_nome_15"/></defs><g id="Camada_2" data-name="Camada 2"><g id="Camada_1-2" data-name="Camada 1"><path class="cls-2" d="M599.78,24.46a182.49,182.49,0,0,0-182.52,0l-326,188.22A182.5,182.5,0,0,0,0,370.73H0V747.17H0A182.48,182.48,0,0,0,79.11,897.56c1.09.76,2.18,1.5,3.29,2.22A53.92,53.92,0,0,0,111,907.91h.2a54.2,54.2,0,0,0,54.19-54.2v-.2a54.09,54.09,0,0,0-21.58-43.28c-1.19-.78-2.35-1.59-3.49-2.43a78.37,78.37,0,0,1-31.88-63.1V373.21a78.4,78.4,0,0,1,39.21-67.9L469.31,119.56a78.39,78.39,0,0,1,8-4C534.84,87.27,607.1,59.8,666.22,62.82Z"/><path class="cls-3" d="M925.78,212.68,666.22,62.82c-59.12-3-131.38,24.45-188.93,52.72a78.45,78.45,0,0,1,70.43,4L869.44,305.31a78.4,78.4,0,0,1,39.21,67.9V744.7a78.4,78.4,0,0,1-39.21,67.9L547.72,998.35a78.41,78.41,0,0,1-38.65,10.5h-.55A54.17,54.17,0,0,0,454.88,1063v.67a54.18,54.18,0,0,0,53.64,54.19h.55l1.77,0h.3a182.31,182.31,0,0,0,88.64-24.44l326-188.21A182.53,182.53,0,0,0,1017,747.17V370.74A182.51,182.51,0,0,0,925.78,212.68Z"/><g class="cls-4"><polygon class="cls-5" points="528.99 1006.12 533.55 1006.12 533.55 1006.13 528.99 1006.12"/><rect class="cls-6" x="528.99" y="1006.12" width="4.56"/><rect class="cls-7" x="528.99" y="1006.12" width="4.56"/><rect class="cls-8" x="528.99" y="1006.11" width="4.56"/><rect class="cls-9" x="528.99" y="1006.11" width="4.56"/><rect class="cls-10" x="528.99" y="1006.1" width="4.56"/><rect class="cls-11" x="528.99" y="1006.1" width="4.56"/><rect class="cls-12" x="528.99" y="1006.1" width="4.56"/><rect class="cls-13" x="528.99" y="1006.09" width="4.56"/><rect class="cls-14" x="528.99" y="1006.09" width="4.56"/><rect class="cls-15" x="528.99" y="1006.09" width="4.56"/><rect class="cls-16" x="528.99" y="1006.08" width="4.56"/><rect class="cls-17" x="528.99" y="1006.08" width="4.56"/><rect class="cls-18" x="528.99" y="1006.07" width="4.56"/><rect class="cls-19" x="528.99" y="1006.07" width="4.56"/><rect class="cls-20" x="528.99" y="1006.07" width="4.56"/><rect class="cls-21" x="528.99" y="1006.06" width="4.56"/><rect class="cls-22" x="528.99" y="1006.06" width="4.56"/><rect class="cls-23" x="528.99" y="1006.05" width="4.56"/><rect class="cls-24" x="528.99" y="1006.05" width="4.56"/><rect class="cls-25" x="528.99" y="1006.05" width="4.56"/><rect class="cls-26" x="528.99" y="1006.04" width="4.56"/><rect class="cls-27" x="528.99" y="1006.04" width="4.56"/><rect class="cls-28" x="528.99" y="1006.04" width="4.56"/><rect class="cls-29" x="528.99" y="1006.03" width="4.56"/><rect class="cls-30" x="528.99" y="1006.03" width="4.56"/><rect class="cls-31" x="528.99" y="1006.02" width="4.56"/><rect class="cls-32" x="528.99" y="1006.02" width="4.56"/><rect class="cls-33" x="528.99" y="1006.02" width="4.56"/><rect class="cls-34" x="528.99" y="1006.01" width="4.56"/><rect class="cls-35" x="528.99" y="1006.01" width="4.56"/><rect class="cls-36" x="528.99" y="1006" width="4.56"/><rect class="cls-37" x="528.99" y="1006" width="4.56"/><rect class="cls-38" x="528.99" y="1006" width="4.56"/><rect class="cls-39" x="528.99" y="1005.99" width="4.56"/><rect class="cls-40" x="528.99" y="1005.99" width="4.56"/><rect class="cls-41" x="528.99" y="1005.99" width="4.56"/><rect class="cls-42" x="528.99" y="1005.98" width="4.56"/><rect class="cls-43" x="528.99" y="1005.98" width="4.56"/><rect class="cls-44" x="528.99" y="1005.97" width="4.56"/><rect class="cls-45" x="528.99" y="1005.97" width="4.56"/><rect class="cls-46" x="528.99" y="1005.97" width="4.56"/><rect class="cls-47" x="528.99" y="1005.96" width="4.56"/><rect class="cls-48" x="528.99" y="1005.96" width="4.56"/><rect class="cls-49" x="528.99" y="1005.95" width="4.56"/><rect class="cls-50" x="528.99" y="1005.95" width="4.56"/><rect class="cls-51" x="528.99" y="1005.95" width="4.56"/><rect class="cls-52" x="528.99" y="1005.94" width="4.56"/><rect class="cls-53" x="528.99" y="1005.94" width="4.56"/><rect class="cls-54" x="528.99" y="1005.94" width="4.56"/><rect class="cls-55" x="528.99" y="1005.93" width="4.56"/><rect class="cls-56" x="528.99" y="1005.93" width="4.56"/><rect class="cls-57" x="528.99" y="1005.92" width="4.56"/><rect class="cls-58" x="528.99" y="1005.92" width="4.56"/><rect class="cls-59" x="528.99" y="1005.92" width="4.56"/><rect class="cls-60" x="528.99" y="1005.91" width="4.56"/><rect class="cls-61" x="528.99" y="1005.91" width="4.56"/><rect class="cls-62" x="528.99" y="1005.9" width="4.56"/><rect class="cls-63" x="528.99" y="1005.9" width="4.56"/><rect class="cls-64" x="528.99" y="1005.9" width="4.56"/><rect class="cls-65" x="528.99" y="1005.89" width="4.56"/><rect class="cls-66" x="528.99" y="1005.89" width="4.56"/><rect class="cls-67" x="528.99" y="1005.89" width="4.56"/><rect class="cls-68" x="528.99" y="1005.88" width="4.56"/><rect class="cls-69" x="528.99" y="1005.88" width="4.56"/><rect class="cls-70" x="528.99" y="1005.87" width="4.56"/><rect class="cls-71" x="528.99" y="1005.87" width="4.56"/><rect class="cls-72" x="528.99" y="1005.87" width="4.56"/><rect class="cls-73" x="528.99" y="1005.86" width="4.56"/><rect class="cls-74" x="528.99" y="1005.86" width="4.56"/><rect class="cls-75" x="528.99" y="1005.85" width="4.56"/><rect class="cls-76" x="528.99" y="1005.85" width="4.56"/><rect class="cls-77" x="528.99" y="1005.85" width="4.56"/><rect class="cls-78" x="528.99" y="1005.84" width="4.56"/><rect class="cls-79" x="528.99" y="1005.84" width="4.56"/><rect class="cls-80" x="528.99" y="1005.84" width="4.56"/><rect class="cls-81" x="528.99" y="1005.83" width="4.56"/><rect class="cls-82" x="528.99" y="1005.83" width="4.56"/><rect class="cls-83" x="528.99" y="1005.82" width="4.56"/><rect class="cls-84" x="528.99" y="1005.82" width="4.56"/><rect class="cls-85" x="528.99" y="1005.82" width="4.56"/><rect class="cls-86" x="528.99" y="1005.81" width="4.56"/><rect class="cls-87" x="528.99" y="1005.81" width="4.56"/><rect class="cls-88" x="528.99" y="1005.8" width="4.56"/><rect class="cls-89" x="528.99" y="1005.8" width="4.56"/><rect class="cls-90" x="528.99" y="1005.8" width="4.56"/><rect class="cls-91" x="528.99" y="1005.79" width="4.56"/><rect class="cls-92" x="528.99" y="1005.79" width="4.56"/><rect class="cls-93" x="528.99" y="1005.79" width="4.56"/><rect class="cls-94" x="528.99" y="1005.78" width="4.56"/><rect class="cls-95" x="528.99" y="1005.78" width="4.56"/><rect class="cls-96" x="528.99" y="1005.77" width="4.56"/><rect class="cls-97" x="528.99" y="1005.77" width="4.56"/><rect class="cls-98" x="528.99" y="1005.77" width="4.56"/><rect class="cls-99" x="528.99" y="1005.76" width="4.56"/><rect class="cls-100" x="528.99" y="1005.76" width="4.56"/><rect class="cls-101" x="528.99" y="1005.75" width="4.56"/><rect class="cls-102" x="528.99" y="1005.75" width="4.56"/><rect class="cls-103" x="528.99" y="1005.75" width="4.56"/><rect class="cls-104" x="528.99" y="1005.74" width="4.56"/><rect class="cls-105" x="528.99" y="1005.74" width="4.56"/><rect class="cls-106" x="528.99" y="1005.74" width="4.56"/><rect class="cls-107" x="528.99" y="1005.73" width="4.56"/><rect class="cls-108" x="528.99" y="1005.73" width="4.56"/><rect class="cls-109" x="528.99" y="1005.72" width="4.56"/><rect class="cls-110" x="528.99" y="1005.72" width="4.56"/><rect class="cls-111" x="528.99" y="1005.72" width="4.56"/><rect class="cls-112" x="528.99" y="1005.71" width="4.56"/><rect class="cls-113" x="528.99" y="1005.71" width="4.56"/><rect class="cls-114" x="528.99" y="1005.7" width="4.56"/><rect class="cls-115" x="528.99" y="1005.7" width="4.56"/><rect class="cls-116" x="528.99" y="1005.7" width="4.56"/><rect class="cls-117" x="528.99" y="1005.69" width="4.56"/><rect class="cls-118" x="528.99" y="1005.69" width="4.56"/><rect class="cls-119" x="528.99" y="1005.68" width="4.56"/><rect class="cls-120" x="528.99" y="1005.68" width="4.56"/><rect class="cls-121" x="528.99" y="1005.68" width="4.56"/><rect class="cls-122" x="528.99" y="1005.67" width="4.56"/><rect class="cls-123" x="528.99" y="1005.67" width="4.56"/><rect class="cls-124" x="528.99" y="1005.67" width="4.56"/><rect class="cls-125" x="528.99" y="1005.66" width="4.56"/><rect class="cls-126" x="528.99" y="1005.66" width="4.56"/><rect class="cls-127" x="528.99" y="1005.65" width="4.56"/><rect class="cls-128" x="528.99" y="1005.65" width="4.56"/><rect class="cls-129" x="528.99" y="1005.65" width="4.56"/><rect class="cls-130" x="528.99" y="1005.64" width="4.56"/><rect class="cls-131" x="528.99" y="1005.64" width="4.56"/><rect class="cls-132" x="528.99" y="1005.63" width="4.56"/><rect class="cls-133" x="528.99" y="1005.63" width="4.56"/><rect class="cls-134" x="528.99" y="1005.63" width="4.56"/><rect class="cls-135" x="528.99" y="1005.62" width="4.56"/><rect class="cls-136" x="528.99" y="1005.62" width="4.56"/><rect class="cls-137" x="528.99" y="1005.62" width="4.56"/><rect class="cls-138" x="528.99" y="1005.61" width="4.56"/><rect class="cls-139" x="528.99" y="1005.61" width="4.56"/><rect class="cls-140" x="528.99" y="1005.6" width="4.56"/><rect class="cls-141" x="528.99" y="1005.6" width="4.56"/><rect class="cls-142" x="528.99" y="1005.6" width="4.56"/><rect class="cls-143" x="528.99" y="1005.59" width="4.56"/><rect class="cls-144" x="528.99" y="1005.59" width="4.56"/><rect class="cls-145" x="528.99" y="1005.58" width="4.56"/><rect class="cls-146" x="528.99" y="1005.58" width="4.56"/><rect class="cls-147" x="528.99" y="1005.58" width="4.56"/><rect class="cls-148" x="528.99" y="1005.57" width="4.56"/><rect class="cls-149" x="528.99" y="1005.57" width="4.56"/><rect class="cls-150" x="528.99" y="1005.57" width="4.56"/><rect class="cls-151" x="528.99" y="1005.56" width="4.56"/><rect class="cls-152" x="528.99" y="1005.56" width="4.56"/><rect class="cls-153" x="528.99" y="1005.55" width="4.56"/><rect class="cls-154" x="528.99" y="1005.55" width="4.56"/><rect class="cls-155" x="528.99" y="1005.55" width="4.56"/><rect class="cls-156" x="528.99" y="1005.54" width="4.56"/><rect class="cls-157" x="528.99" y="1005.54" width="4.56"/><rect class="cls-157" x="528.99" y="1005.53" width="4.56"/><rect class="cls-156" x="528.99" y="1005.53" width="4.56"/><rect class="cls-155" x="528.99" y="1005.53" width="4.56"/><rect class="cls-154" x="528.99" y="1005.52" width="4.56"/><rect class="cls-158" x="528.99" y="1005.52" width="4.56"/><rect class="cls-152" x="528.99" y="1005.51" width="4.56"/><rect class="cls-159" x="528.99" y="1005.51" width="4.56"/><rect class="cls-150" x="528.99" y="1005.51" width="4.56"/><rect class="cls-160" x="528.99" y="1005.5" width="4.56"/><rect class="cls-161" x="528.99" y="1005.5" width="4.56"/><rect class="cls-162" x="528.99" y="1005.49" width="4.56"/><rect class="cls-163" x="528.99" y="1005.49" width="4.56"/><rect class="cls-164" x="528.99" y="1005.49" width="4.56"/><rect class="cls-165" x="528.99" y="1005.48" width="4.56"/><rect class="cls-166" x="528.99" y="1005.48" width="4.56"/><rect class="cls-167" x="528.99" y="1005.47" width="4.56"/><rect class="cls-168" x="528.99" y="1005.47" width="4.56"/><rect class="cls-169" x="528.99" y="1005.47" width="4.56"/><rect class="cls-170" x="528.99" y="1005.46" width="4.56"/><rect class="cls-171" x="528.99" y="1005.46" width="4.56"/><rect class="cls-172" x="528.99" y="1005.45" width="4.56"/><rect class="cls-173" x="528.99" y="1005.45" width="4.56"/><rect class="cls-174" x="528.99" y="1005.44" width="4.56"/><rect class="cls-175" x="528.99" y="1005.44" width="4.56"/><rect class="cls-176" x="528.99" y="1005.44" width="4.56"/><rect class="cls-177" x="528.99" y="1005.43" width="4.56"/><rect class="cls-178" x="528.99" y="1005.43" width="4.56"/><rect class="cls-179" x="528.99" y="1005.42" width="4.56"/><rect class="cls-180" x="528.99" y="1005.42" width="4.56"/><rect class="cls-181" x="528.99" y="1005.42" width="4.56"/><rect class="cls-182" x="528.99" y="1005.41" width="4.56"/><rect class="cls-183" x="528.99" y="1005.41" width="4.56"/><rect class="cls-184" x="528.99" y="1005.4" width="4.56"/><rect class="cls-185" x="528.99" y="1005.4" width="4.56"/><rect class="cls-186" x="528.99" y="1005.4" width="4.56"/><rect class="cls-187" x="528.99" y="1005.39" width="4.56"/><rect class="cls-188" x="528.99" y="1005.39" width="4.56"/><rect class="cls-189" x="528.99" y="1005.38" width="4.56"/><rect class="cls-190" x="528.99" y="1005.38" width="4.56"/><rect class="cls-191" x="528.99" y="1005.38" width="4.56"/><rect class="cls-192" x="528.99" y="1005.37" width="4.56"/><rect class="cls-193" x="528.99" y="1005.37" width="4.56"/><rect class="cls-194" x="528.99" y="1005.36" width="4.56"/><rect class="cls-195" x="528.99" y="1005.36" width="4.56"/><rect class="cls-196" x="528.99" y="1005.35" width="4.56"/><rect class="cls-197" x="528.99" y="1005.35" width="4.56"/><rect class="cls-198" x="528.99" y="1005.35" width="4.56"/><rect class="cls-199" x="528.99" y="1005.34" width="4.56"/><rect class="cls-200" x="528.99" y="1005.34" width="4.56"/><rect class="cls-201" x="528.99" y="1005.33" width="4.56"/><rect class="cls-202" x="528.99" y="1005.33" width="4.56"/><rect class="cls-203" x="528.99" y="1005.33" width="4.56"/><rect class="cls-204" x="528.99" y="1005.32" width="4.56"/><rect class="cls-205" x="528.99" y="1005.32" width="4.56"/><rect class="cls-206" x="528.99" y="1005.31" width="4.56"/><rect class="cls-207" x="528.99" y="1005.31" width="4.56"/><rect class="cls-208" x="528.99" y="1005.31" width="4.56"/><rect class="cls-209" x="528.99" y="1005.3" width="4.56"/><rect class="cls-210" x="528.99" y="1005.3" width="4.56"/><rect class="cls-211" x="528.99" y="1005.29" width="4.56"/><rect class="cls-212" x="528.99" y="1005.29" width="4.56"/><rect class="cls-213" x="528.99" y="1005.29" width="4.56"/><rect class="cls-214" x="528.99" y="1005.28" width="4.56"/><rect class="cls-215" x="528.99" y="1005.28" width="4.56"/><rect class="cls-216" x="528.99" y="1005.27" width="4.56"/><rect class="cls-217" x="528.99" y="1005.27" width="4.56"/><rect class="cls-218" x="528.99" y="1005.26" width="4.56"/><rect class="cls-219" x="528.99" y="1005.26" width="4.56"/><rect class="cls-220" x="528.99" y="1005.26" width="4.56"/><rect class="cls-221" x="528.99" y="1005.25" width="4.56"/><rect class="cls-222" x="528.99" y="1005.25" width="4.56"/><rect class="cls-223" x="528.99" y="1005.24" width="4.56"/><rect class="cls-224" x="528.99" y="1005.24" width="4.56"/><rect class="cls-225" x="528.99" y="1005.24" width="4.56"/><rect class="cls-226" x="528.99" y="1005.23" width="4.56"/><rect class="cls-227" x="528.99" y="1005.23" width="4.56"/><rect class="cls-228" x="528.99" y="1005.22" width="4.56"/><rect class="cls-229" x="528.99" y="1005.22" width="4.56"/><rect class="cls-230" x="528.99" y="1005.22" width="4.56"/><rect class="cls-231" x="528.99" y="1005.21" width="4.56"/><rect class="cls-232" x="528.99" y="1005.21" width="4.56"/><rect class="cls-233" x="528.99" y="1005.2" width="4.56"/><rect class="cls-234" x="528.99" y="1005.2" width="4.56"/><rect class="cls-235" x="528.99" y="1005.2" width="4.56"/><rect class="cls-236" x="528.99" y="1005.19" width="4.56"/><rect class="cls-237" x="528.99" y="1005.19" width="4.56"/><rect class="cls-238" x="528.99" y="1005.18" width="4.56"/><rect class="cls-239" x="528.99" y="1005.18" width="4.56"/><rect class="cls-240" x="528.99" y="1005.17" width="4.56"/><rect class="cls-241" x="528.99" y="1005.17" width="4.56"/><rect class="cls-242" x="528.99" y="1005.17" width="4.56"/><rect class="cls-243" x="528.99" y="1005.16" width="4.56"/><rect class="cls-244" x="528.99" y="1005.16" width="4.56"/><rect class="cls-245" x="528.99" y="1005.15" width="4.56"/><rect class="cls-246" x="528.99" y="1005.15" width="4.56"/><rect class="cls-247" x="528.99" y="1005.15" width="4.56"/><rect class="cls-248" x="528.99" y="1005.14" width="4.56"/><rect class="cls-249" x="528.99" y="1005.14" width="4.56"/><rect class="cls-250" x="528.99" y="1005.13" width="4.56"/><rect class="cls-251" x="528.99" y="1005.13" width="4.56"/><rect class="cls-252" x="528.99" y="1005.13" width="4.56"/><rect class="cls-253" x="528.99" y="1005.12" width="4.56"/><rect class="cls-254" x="528.99" y="1005.12" width="4.56"/><rect class="cls-255" x="528.99" y="1005.11" width="4.56"/><rect class="cls-256" x="528.99" y="1005.11" width="4.56"/><rect class="cls-257" x="528.99" y="1005.11" width="4.56"/><rect class="cls-258" x="528.99" y="1005.1" width="4.56"/><rect class="cls-259" x="528.99" y="1005.1" width="4.56"/><rect class="cls-260" x="528.99" y="1005.09" width="4.56"/><rect class="cls-261" x="528.99" y="1005.09" width="4.56"/><rect class="cls-262" x="528.99" y="1005.08" width="4.56"/><rect class="cls-263" x="528.99" y="1005.08" width="4.56"/><rect class="cls-263" x="528.99" y="1005.07" width="4.56" height="0.02"/><rect class="cls-262" x="528.99" y="1005.05" width="4.56" height="0.02"/><rect class="cls-264" x="528.99" y="1005.04" width="4.56" height="0.02"/><rect class="cls-265" x="528.99" y="1005.02" width="4.56" height="0.02"/><rect class="cls-266" x="528.99" y="1005.01" width="4.56" height="0.02"/><rect class="cls-267" x="528.99" y="1004.99" width="4.56" height="0.02"/><rect class="cls-268" x="528.99" y="1004.97" width="4.56" height="0.02"/><rect class="cls-269" x="528.99" y="1004.96" width="4.56" height="0.02"/><rect class="cls-270" x="528.99" y="1004.94" width="4.56" height="0.02"/><rect class="cls-271" x="528.99" y="1004.93" width="4.56" height="0.02"/><rect class="cls-272" x="528.99" y="1004.91" width="4.56" height="0.02"/><rect class="cls-273" x="528.99" y="1004.9" width="4.56" height="0.02"/><rect class="cls-274" x="528.99" y="1004.88" width="4.56" height="0.02"/><rect class="cls-275" x="528.99" y="1004.87" width="4.56" height="0.02"/><rect class="cls-276" x="528.99" y="1004.85" width="4.56" height="0.02"/><rect class="cls-277" x="528.99" y="1004.84" width="4.56" height="0.02"/><rect class="cls-278" x="528.99" y="1004.82" width="4.56" height="0.02"/><rect class="cls-279" x="528.99" y="1004.81" width="4.56" height="0.02"/><rect class="cls-280" x="528.99" y="1004.79" width="4.56" height="0.02"/><rect class="cls-281" x="528.99" y="1004.78" width="4.56" height="0.02"/><rect class="cls-282" x="528.99" y="1004.76" width="4.56" height="0.02"/><rect class="cls-283" x="528.99" y="1004.75" width="4.56" height="0.02"/><path class="cls-283" d="M533.55,1004.75h0Z"/></g><path class="cls-284" d="M447.14,772.46,710.33,622.7c47.38-27,47.8-95.1.76-122.65L447.91,345.89C400.7,318.24,341.3,352.28,341.3,407V710.91C341.3,765.23,399.93,799.33,447.14,772.46Z"/><path class="cls-285" d="M1745.63,176.32V661.86H1627.36V462h-184V661.86H1325.11V176.32h118.27V366.53h184V176.32Z"/><path class="cls-286" d="M1949,271.08v98.21h158.38v91.3H1949V567.1H2128.1v94.76H1830.7V176.32h297.4v94.76Z"/><path class="cls-287" d="M2502.27,661.86l-98.9-148.71-87.15,148.71H2182l155.62-246.92L2178.58,176.32h137.64L2413.74,323l85.77-146.63h134.18L2479.45,421.17l160.46,240.69Z"/><path class="cls-288" d="M1405,878.32V912a30.6,30.6,0,0,1-4,16,25.44,25.44,0,0,1-11.53,10.11q-7.58,3.48-18.2,3.48-10.8,0-18.53-3.28a25.14,25.14,0,0,1-11.72-9.56,27.37,27.37,0,0,1-4-15.06V853.5a30.56,30.56,0,0,1,4-16,25.39,25.39,0,0,1,11.53-10.11q7.57-3.48,18.2-3.49a43.11,43.11,0,0,1,17.85,3.37,24.82,24.82,0,0,1,11.34,9.83,29.37,29.37,0,0,1,3.91,15.5v5.71h-19.5v-5.71a16.83,16.83,0,0,0-1.59-7.61,10.86,10.86,0,0,0-4.63-4.8,15.53,15.53,0,0,0-7.38-1.62,18.4,18.4,0,0,0-8.31,1.74,11.84,11.84,0,0,0-5.25,5.08,16.78,16.78,0,0,0-1.79,8.08v60.18a13.16,13.16,0,0,0,1.88,7.17,11.82,11.82,0,0,0,5.45,4.52,21.58,21.58,0,0,0,8.59,1.55,18.28,18.28,0,0,0,8.25-1.71,12,12,0,0,0,5.27-5,16.16,16.16,0,0,0,1.83-8V892.59h-15.83V878.32Z"/><path class="cls-288" d="M1769.92,825.12h16.79l32.43,115.28h-19.68l-21.14-91.65-21.14,91.65h-19.69Zm-11.68,76h41.6v14.19h-41.6Z"/><path class="cls-288" d="M2231.67,825.12h16.12V940.4H2231V853.11l1.65,5.07-24.13,63.35h-11.78l-24-61.76,2.22-6.66V940.4h-17.47V825.12h16.79l28.38,72.38Z"/><path class="cls-288" d="M2592.85,825.12h18.34V940.4h-18.34Zm9.56,0h50.67v14.27h-50.67Zm0,50.9h45.84v14.27h-45.84Zm0,50.11h50.67V940.4h-50.67Z"/></g></g></svg>