<?xml version="1.0" standalone="no"?>
<!DOCTYPE svg PUBLIC "-//W3C//DTD SVG 20010904//EN"
 "http://www.w3.org/TR/2001/REC-SVG-20010904/DTD/svg10.dtd">
<svg version="1.0" xmlns="http://www.w3.org/2000/svg"
 width="1118.000000pt" height="1118.000000pt" viewBox="0 0 1118.000000 1118.000000"
 preserveAspectRatio="xMidYMid meet">
<metadata>
Created by potrace 1.14, written by Peter Selinger 2001-2017
</metadata>
<g transform="translate(0.000000,1118.000000) scale(0.100000,-0.100000)"
fill="#000000" stroke="none">
<path d="M5395 11173 c-185 -22 -425 -90 -587 -168 -91 -43 -138 -68 -315
-171 -122 -72 -848 -491 -958 -554 -16 -9 -176 -102 -355 -205 -179 -104 -365
-212 -415 -240 -49 -28 -164 -94 -255 -147 -91 -52 -327 -189 -525 -303 -198
-114 -418 -242 -490 -283 -175 -101 -247 -149 -335 -225 -245 -208 -411 -437
-528 -724 -42 -102 -95 -288 -106 -373 -3 -25 -9 -56 -13 -70 -11 -38 -13
-4133 -2 -4210 14 -101 16 -110 33 -190 76 -356 277 -703 551 -951 219 -197
339 -257 514 -257 99 0 148 10 230 49 101 46 164 102 230 201 126 189 109 461
-40 639 -23 28 -77 77 -119 109 -130 99 -215 210 -269 349 -33 87 -38 107 -49
201 -9 83 -7 3873 2 3920 42 208 146 380 306 502 41 31 78 57 81 58 3 0 116
64 250 141 134 78 260 151 279 161 19 11 166 96 325 188 160 92 306 177 325
187 19 11 80 46 135 78 182 106 399 231 485 280 47 26 101 58 120 70 29 19
444 257 560 323 19 10 190 109 380 219 382 222 418 241 505 271 118 40 296 50
395 22 16 -5 30 -7 30 -5 0 17 232 -89 290 -131 8 -6 47 -28 85 -49 39 -21 75
-41 80 -45 8 -6 468 -272 830 -480 247 -142 509 -293 580 -335 50 -29 107 -62
128 -74 59 -34 75 -43 617 -356 283 -164 535 -309 560 -323 25 -14 89 -52 143
-84 55 -32 101 -58 104 -58 15 0 135 -95 178 -141 111 -118 175 -242 207 -399
20 -98 18 -3928 -2 -4015 -36 -156 -104 -279 -220 -395 -73 -73 -109 -98 -250
-179 -91 -52 -181 -104 -200 -116 -29 -18 -439 -255 -560 -323 -19 -11 -219
-126 -445 -257 -225 -131 -430 -249 -455 -263 -25 -14 -74 -42 -109 -64 -34
-21 -65 -38 -68 -38 -3 0 -42 -22 -87 -49 -44 -27 -155 -91 -246 -143 -91 -52
-280 -162 -420 -243 -140 -81 -280 -161 -310 -178 -30 -17 -83 -48 -118 -69
-34 -21 -64 -38 -67 -38 -2 0 -27 -14 -55 -30 -28 -16 -57 -30 -65 -30 -8 0
-15 -4 -15 -8 0 -15 -217 -61 -290 -61 -243 0 -463 -171 -524 -407 -32 -122
-15 -277 41 -387 31 -62 35 -67 109 -143 69 -70 170 -124 269 -144 55 -12 323
-8 343 4 4 2 32 7 62 11 30 4 58 9 61 11 3 2 21 6 40 9 94 16 297 88 412 146
33 17 186 104 341 193 154 90 358 207 451 261 94 54 240 139 325 188 187 108
187 108 325 187 61 35 164 94 230 132 66 38 127 73 135 78 207 119 606 350
640 370 49 29 122 71 520 300 428 247 500 291 600 369 226 176 413 412 533
670 41 89 112 295 122 353 3 18 8 40 10 48 2 8 7 31 10 50 3 19 7 46 10 60 2
14 7 54 11 90 8 82 8 4040 0 4098 -3 23 -8 61 -11 85 -27 207 -126 495 -232
672 -129 214 -291 395 -477 533 -86 65 -219 152 -231 152 -3 0 -24 12 -46 26
-23 14 -62 37 -87 51 -26 15 -60 34 -77 44 -16 10 -43 26 -60 35 -16 10 -217
125 -445 257 -380 219 -488 282 -582 336 -18 10 -105 60 -193 111 -88 51 -185
106 -215 123 -30 16 -62 36 -71 43 -8 8 -18 14 -21 14 -4 0 -115 63 -248 141
-133 77 -257 149 -275 159 -53 30 -427 246 -465 269 -19 11 -42 24 -50 28 -8
4 -58 32 -110 63 -52 31 -102 60 -110 64 -8 4 -24 12 -35 19 -202 121 -305
171 -456 221 -57 19 -115 37 -129 39 -14 3 -43 10 -65 15 -22 6 -58 13 -80 17
-23 3 -52 8 -65 11 -28 7 -388 12 -435 7z"/>
<path d="M4458 7800 c-206 -51 -377 -187 -471 -376 -77 -152 -71 0 -73 -1805
-2 -1716 -3 -1674 43 -1799 73 -195 240 -354 448 -426 72 -25 94 -28 215 -28
125 0 141 2 220 30 67 23 326 163 530 284 25 15 270 154 335 190 33 18 76 42
95 53 19 11 58 33 85 49 28 16 57 33 65 38 31 20 422 240 426 240 2 0 33 18
69 40 36 22 67 40 70 40 2 0 37 20 77 43 40 24 302 174 581 333 465 264 514
295 578 358 274 271 283 707 21 988 -41 44 -160 138 -175 138 -3 0 -34 17 -68
39 -35 21 -239 141 -454 266 -214 125 -475 278 -580 340 -198 117 -816 479
-876 513 -115 66 -216 126 -240 143 -15 10 -30 19 -33 19 -4 0 -39 19 -79 43
-298 179 -358 211 -442 237 -99 31 -263 35 -367 10z"/>
</g>
</svg>
